<?xml version="1.0" encoding="iso-8859-1"?>
<!-- Generator: Adobe Illustrator 19.0.0, SVG Export Plug-In . SVG Version: 6.00 Build 0)  -->
<svg version="1.1" id="Layer_1" xmlns="http://www.w3.org/2000/svg" xmlns:xlink="http://www.w3.org/1999/xlink" x="0px" y="0px"
	 viewBox="0 0 495 495" style="enable-background:new 0 0 495 495;" xml:space="preserve">
<g>
	<path style="fill:#FFDA44;" d="M207.5,247.5c0-22.056,17.944-40,40-40V0C111.028,0,0,111.028,0,247.5S111.028,495,247.5,495V287.5
		C225.444,287.5,207.5,269.556,207.5,247.5z M137.5,287.5c-22.056,0-40-17.944-40-40s17.944-40,40-40s40,17.944,40,40
		S159.556,287.5,137.5,287.5z"/>
	<path style="fill:#FFCD00;" d="M247.5,0v207.5c22.056,0,40,17.944,40,40s-17.944,40-40,40V495C383.972,495,495,383.972,495,247.5
		S383.972,0,247.5,0z M357.5,287.5c-22.056,0-40-17.944-40-40s17.944-40,40-40s40,17.944,40,40S379.556,287.5,357.5,287.5z"/>
	<path style="fill:#2488FF;" d="M317.5,247.5c0,22.056,17.944,40,40,40v-80C335.444,207.5,317.5,225.444,317.5,247.5z"/>
	<path style="fill:#005ECE;" d="M357.5,207.5v80c22.056,0,40-17.944,40-40S379.556,207.5,357.5,207.5z"/>
	<path style="fill:#2488FF;" d="M207.5,247.5c0,22.056,17.944,40,40,40v-80C225.444,207.5,207.5,225.444,207.5,247.5z"/>
	<path style="fill:#005ECE;" d="M287.5,247.5c0-22.056-17.944-40-40-40v80C269.556,287.5,287.5,269.556,287.5,247.5z"/>
	<path style="fill:#2488FF;" d="M97.5,247.5c0,22.056,17.944,40,40,40v-80C115.444,207.5,97.5,225.444,97.5,247.5z"/>
	<path style="fill:#005ECE;" d="M137.5,207.5v80c22.056,0,40-17.944,40-40S159.556,207.5,137.5,207.5z"/>
</g>
<g>
</g>
<g>
</g>
<g>
</g>
<g>
</g>
<g>
</g>
<g>
</g>
<g>
</g>
<g>
</g>
<g>
</g>
<g>
</g>
<g>
</g>
<g>
</g>
<g>
</g>
<g>
</g>
<g>
</g>
</svg>
